<?xml version="1.0" encoding="UTF-8"?>
<svg id="Layer_2" data-name="Layer 2" xmlns="http://www.w3.org/2000/svg" viewBox="0 0 1681.48 547.49">
  <defs>
    <style>
      .cls-1 {
        stroke-width: 0px;
      }
    </style>
  </defs>
  <g id="Layer_1-2" data-name="Layer 1">
    <g>
      <path class="cls-1" d="m.81,269.29c.53,3.87,1.28,7.72,1.55,11.61,4.39,64.53,30.76,119.4,73.51,167.01,17.06,19.01,36.42,35.4,57.96,49.17,1.3.83,2.85,1.29,4.28,1.93.3-1.53.83-3.07.85-4.6.2-13.38.33-26.76.44-40.13.14-17.46-6.01-32.09-18.07-44.97-21.33-22.8-36.61-49.43-46.52-79.05-5.61-16.76-8.79-33.98-8.77-51.72.01-8.51-.03-17.03.08-25.54.21-15.81,3.29-31.1,8.3-46.07,5.43-16.23,12.87-31.49,21.82-46.04,1.55-2.52,3.42-4.85,5.26-7.18.91-1.15,1.88-.95,2.37.48.35,1.02.6,2.08.88,3.12,20.88,79.83,41.78,159.65,62.63,239.49,5.6,21.43,11.15,42.87,16.55,64.35,3.79,15.06,7.06,30.25,11.05,45.25,1.72,6.49,4.55,12.69,7.06,18.95,2.14,5.34,6.26,8.62,11.57,10.67,6.87,2.65,14.02,4.14,21.3,4.67,6.86.5,13.77.49,20.66.5,4.84,0,4.83-.15,4.82-5.16-.16-45.69-.53-91.38-.42-137.06.23-100.16.79-200.32,1.04-300.49.08-31.09-.42-62.18-.67-93.26-.04-4.93-.06-4.79-5.09-4.34-5.25.47-10.54.45-15.78.95-6.17.59-12.44.97-18.43,2.39-14.46,3.44-21.72,12.7-21.98,27.61-.12,6.61.45,13.23.68,19.85,1.48,42.03.91,84.06.17,126.1-.44,25.41-.65,50.82-.96,76.23-.01.95.18,1.99-.17,2.8-.3.7-1.19,1.49-1.89,1.56-.74.07-1.7-.51-2.3-1.08-.42-.4-.42-1.25-.59-1.9-9.14-35.85-18.28-71.71-27.42-107.56-8.38-32.84-16.78-65.68-25.14-98.53-.8-3.14-1.39-6.33-2.07-9.5-.69-3.19-1.01-3.39-3.97-1.77-1.89,1.03-3.79,2.12-5.5,3.43-13.92,10.72-27.79,21.49-41.68,32.25-25.42,25.19-47.96,52.39-62.14,85.79-8.42,19.83-15.73,39.95-19.77,61.17-2.23,11.7-3.48,23.51-4.25,35.38-.18,2.81-.8,5.6-1.22,8.39,0,1.62,0,3.24,0,4.87Z"/>
      <path class="cls-1" d="m1681.48,115.18c-.3-.59-.75-1.15-.88-1.77-3.59-17.09-19.15-29.27-36.73-28.72-17.75.56-32.77,13.81-35.3,31.13-2.87,19.7,9.37,37.53,28.68,41.77,17.75,3.9,36.17-6.29,42.28-23.39.71-1.99,1.3-4.03,1.95-6.05v-12.98Zm-36.47-23.85c16.87.04,30.24,13.57,30.16,30.53-.08,16.58-13.66,30-30.34,29.98-16.83-.02-30.27-13.65-30.15-30.56.11-16.68,13.59-29.98,30.33-29.94Z"/>
      <path class="cls-1" d="m423.32,315.67c1.29-1.91,2.21-3.19,3.05-4.52,16.63-26.42,33.26-52.84,49.88-79.27.58-.92,1.06-1.91,1.76-2.72.91-1.05,1.99-1.94,3-2.89.82,1.18,2.07,2.25,2.4,3.56,1.76,6.93,3.65,13.85,4.82,20.89,1.86,11.22,2.48,22.57,1.98,33.94-.78,17.94-4.82,35.25-9.9,52.41-7.91,26.72-22.31,49.64-40.21,70.62-6.05,7.1-11.97,14.31-18.13,21.31-3.76,4.28-5.35,9.16-5.79,14.74-1.22,15.27-.66,30.53-.25,45.8.1,3.78.19,7.57.36,11.35.09,2.03.67,2.44,2.52,1.59,1.96-.89,3.86-1.96,5.69-3.1,16.01-9.9,31.33-20.8,45.6-33.03,10.08-8.64,18.33-19.11,26.36-29.66,25.44-33.41,42.93-70.5,51.21-111.78,4.03-20.09,5.58-40.37,4.75-60.87-1.3-31.8-8.5-62.23-20.06-91.79-9.79-25.03-24.89-46.63-42.24-66.82-4.72-5.5-4.28-4.05-7.19.45-15.99,24.75-31.92,49.53-47.9,74.28-.78,1.21-1.83,2.24-2.75,3.36-.85-1.28-1.9-2.47-2.53-3.86-14.8-32.3-29.97-64.44-44.17-97.01-7.46-17.11-15.67-33.82-23.8-50.58-2.74-5.65-6.48-10.61-10.91-15.02-8.58-8.55-19.21-12.45-31.11-12.76-7.01-.18-14.04.36-21.05.71-3.98.2-4.06.36-4.02,4.32.14,15.54.48,31.09.45,46.63-.11,57.72-.24,115.44-.54,173.16-.37,71.24-1.04,142.47-1.33,213.71-.13,32.98.32,65.96.53,98.95.02,3.93.25,4.24,4.16,3.88,14.28-1.34,28.4-3.77,42.25-7.46,8.13-2.16,12.63-8.05,13.98-16.21.61-3.71.91-7.52.89-11.29-.25-41.77-.85-83.54-.83-125.3.03-54.61.5-109.22.85-163.83.08-12.3.56-24.6.68-36.89.04-3.93,1.5-4.03,4.11-3.64.83.12,1.72,1.2,2.19,2.06,1.16,2.13,2.1,4.38,3.11,6.59,18.62,40.51,37.23,81.02,55.85,121.53.59,1.29,1.29,2.54,2.26,4.44Z"/>
      <path class="cls-1" d="m1264.47,184.13c-.73-1.16-1.2-2.18-1.91-2.98-10.28-11.56-23.23-16.8-38.61-16.13-6.63.29-13.21,1.04-19.55,3.11-18.41,6-28.68,19.04-32.01,37.74-.94,5.29-1.17,10.75-1.23,16.13-.16,14.05-.06,28.11-.04,42.17,0,1.89.09,3.78.25,5.67.76,9.07,6.33,15.81,15.23,17.7,3.92.83,8.04.68,12.08.93,1.83.12,2.77-.82,2.8-2.65.03-1.49.08-2.97.08-4.46,0-20.41-.05-40.82.06-61.23.02-4.16.22-8.42,1.14-12.46,2.31-10.17,10-16.36,19.81-16.53,11.33-.21,19.83,5.63,22.48,16.02,1.12,4.4,1.6,9.07,1.66,13.62.2,14.86.05,29.73.11,44.6,0,2.55.09,5.16.58,7.65,1.55,7.85,6.56,12.71,14.17,14.42,4.16.94,8.58.76,12.88,1.01,2.06.12,2.91-1.06,2.86-3.03-.03-1.08,0-2.16,0-3.24,0-21.22-.02-42.44.03-63.66,0-3.09.18-6.21.61-9.28,1.75-12.5,11.9-20.65,26.84-17.49,9.38,1.99,15.2,8.78,16.65,19.11.51,3.6.77,7.26.79,10.9.09,14.87,0,29.74.07,44.6.01,2.55.23,5.14.74,7.63,1.51,7.38,6.08,12.06,13.45,13.4,4.48.82,9.13.75,13.7,1.07,2.12.14,2.91-1.02,2.84-2.98,0-.27.02-.54.02-.81-.06-24.46.24-48.93-.28-73.39-.52-24.61-17.73-42.74-42.18-45.66-7.87-.94-15.63-1-23.25,1.52-8.03,2.65-14.83,7.09-20.08,13.79-.65.83-1.39,1.6-2.77,3.19Z"/>
      <path class="cls-1" d="m780.86,226.83c.19,18.75,4.38,33.3,15.14,45.38,10.58,11.87,24.03,18.05,39.92,18.8,7.45.35,14.86,0,22.11-1.94,17.04-4.57,29.66-14.65,37.08-30.72,7.52-16.28,8.98-33.3,4.35-50.61-6.84-25.56-27.67-41.87-54.1-42.72-9.96-.32-19.7.97-28.89,5.02-18.3,8.07-29.1,22.31-33.42,41.56-1.32,5.89-1.75,11.99-2.19,15.22Zm89.24,2.26c.1,8.78-1.14,17.23-5.92,24.86-4.11,6.56-10.11,9.95-17.7,10.63-2.28.2-4.6.19-6.88.05-11.03-.66-18.88-5.94-23.03-16.3-3.59-8.96-4.46-18.3-3.56-27.86.63-6.69,2.35-13.01,6.07-18.69,2.59-3.96,6.02-6.91,10.44-8.65,15.82-6.23,32.14,1.23,37.71,17.22,2.12,6.07,2.79,12.36,2.88,18.74Z"/>
      <path class="cls-1" d="m1384.16,203.59c.77-.49,1.25-.71,1.63-1.04,9.14-8.08,20.18-11.33,32.02-12,5.89-.33,11.94-.15,17.74.81,10.3,1.71,15.95,6.99,15.99,20.75,0,2.07-1.06,2.45-2.79,2.48-6.89.13-13.79.19-20.67.55-10.18.54-20.13,2.39-29.49,6.61-9.58,4.32-16.63,10.99-19.32,21.53-3.71,14.56,1.59,28.76,14.02,37.34,7.26,5.01,15.37,7.97,24.08,8.95,10.77,1.22,21.62,1.79,32.22-1.08,15.96-4.33,26.86-14.08,30.89-30.53.8-3.25,1.15-6.68,1.2-10.03.15-10.13.11-20.27.03-30.41-.06-7.06-.89-14.03-3.15-20.75-5.12-15.26-15.3-25.24-31.07-29.05-13.1-3.16-26.28-3.28-39.27.46-4.23,1.21-8.39,3.13-12.12,5.46-8.39,5.25-12.75,13-12.6,23.06.03,1.76.04,3.51.12,5.27.02.38.25.75.55,1.63Zm55.38,32.13c3.1,0,6.21.05,9.31-.02,1.98-.04,3.11.71,3.03,2.79-.18,4.85-.05,9.73-.67,14.52-.73,5.6-3.92,9.83-9.37,11.7-8.21,2.82-16.51,2.67-24.44-.96-6.39-2.92-9.09-9.37-7.46-16.23,1.15-4.85,4.39-7.58,8.85-9.16,6.73-2.38,13.73-2.64,20.77-2.65Z"/>
      <path class="cls-1" d="m1047.31,203.85c3.81-2.61,6.68-4.87,9.81-6.67,7.16-4.1,15.05-6.17,23.19-6.58,6.43-.32,13.04-.28,19.35.85,11.93,2.13,15.2,8.94,15.7,20.66.1,2.44-1.59,2.41-3.27,2.46-6.75.17-13.51.22-20.25.56-8.53.43-16.91,1.85-24.97,4.8-2.4.88-4.76,1.93-7.06,3.05-22.47,10.99-22.8,40.27-7.04,54.31,4.82,4.3,10.32,7.43,16.39,9.44,14.61,4.83,29.61,5.32,44.36,1.6,17.03-4.3,27.89-15.33,31.2-33,.47-2.5.57-5.11.57-7.66,0-11.62.03-23.24-.17-34.86-.11-6.24-1.39-12.34-3.63-18.19-5.42-14.15-15.4-23.26-30.16-26.85-13.09-3.19-26.23-3.21-39.28.3-5.39,1.45-10.42,3.75-14.79,7.31-6.57,5.35-10.19,12.11-9.97,20.73.06,2.38,0,4.77,0,7.76Zm56.21,31.38c.02.16.04.33.06.49,2.97,0,5.94.07,8.9-.02,2.3-.08,3.09.97,3.04,3.16-.1,3.77.16,7.57-.12,11.33-.49,6.45-3,11.96-9.44,14.35-8.42,3.13-16.98,2.92-25.17-.93-5.45-2.55-7.78-7.3-7.53-13.22.24-5.88,3.25-9.85,8.79-11.86,1.26-.46,2.55-.96,3.87-1.14,5.86-.78,11.74-1.45,17.61-2.16Z"/>
      <path class="cls-1" d="m755.82,248.65c0-11.08.27-22.16-.06-33.23-.51-17.06-7.16-31.17-21.37-41.16-7.81-5.49-16.71-8.1-26.16-8.92-10.92-.95-21.63.02-31.79,4.33-19.58,8.3-29.53,23.72-30.44,44.46-.81,18.47-.25,37.01-.15,55.52.05,8.88,5.9,16.15,14.72,17.91,4.32.86,8.85.67,13.29.91,1.64.09,2.51-.74,2.47-2.44-.02-1.08.02-2.16.02-3.24,0-20.81-.02-41.61.03-62.42,0-2.82.21-5.67.61-8.47,2.16-15.07,13.37-23.09,28.39-20.38,10.67,1.92,17.14,8.41,18.98,19.36.58,3.45.87,6.98.89,10.48.09,15.54.29,31.08-.04,46.61-.24,11.45,8,18.78,16.91,19.91,3.33.42,6.72.56,10.09.6,3.43.04,3.6-.18,3.61-3.74.03-12.02.01-24.05.01-36.07h0Z"/>
      <path class="cls-1" d="m1517.43,288.8c2.16,0,4.33-.05,6.49.01,1.98.06,2.94-.87,3.25-2.79,2.43-14.89,11.64-25.88,21.17-36.67,2.02-2.29,2.29-2.22,4.15.45,4.41,6.32,8.61,12.78,13.18,18.98,3.2,4.33,6.62,8.57,10.39,12.41,8.43,8.58,18.82,10.67,30.26,8.01,5.31-1.23,9.31-4.31,10.89-9.81.84-2.9.52-3.52-2.4-4.37-5.91-1.73-10.68-5.16-14.7-9.68-2.24-2.52-4.4-5.14-6.38-7.86-5.97-8.19-11.85-16.45-17.73-24.7-2.1-2.95-2.05-2.97.4-5.78,4.9-5.59,9.87-11.12,14.65-16.81,5.31-6.32,10.17-12.98,13.86-20.41,1.76-3.54,3.06-7.19,2.64-11.28-.64-6.27-4.55-10.17-10.83-10.43-3.37-.14-6.76,0-10.14-.08-1.84-.04-3.04.4-3.43,2.48-1.74,9.21-6.82,16.67-12.72,23.65-3.4,4.03-6.88,7.99-10.43,11.89-1.92,2.11-2.2,2.07-3.96-.28-4.37-5.85-8.47-11.9-13.05-17.58-4.14-5.14-8.61-10.04-13.24-14.75-4.17-4.24-9.44-6.08-15.47-5.8-4.05.19-8.11-.04-12.16.1-2.92.1-3.58.8-2.52,3.52,1.7,4.37,3.44,8.87,6.03,12.73,8.16,12.1,16.74,23.91,25.12,35.86,4.55,6.49,4.87,4.5-.88,10.69-5.7,6.13-11.46,12.22-17,18.51-2.49,2.83-4.59,6.02-6.66,9.18-3.55,5.42-5.44,11.43-5.96,17.88-.57,7.07,3.53,11.98,10.66,12.6,2.15.19,4.32.03,6.48.03,0,.04,0,.07,0,.11Z"/>
      <path class="cls-1" d="m973.23,252.91c-1.37-2.53-2.29-4.14-3.13-5.79-9.98-19.52-16.14-40.32-20.45-61.72-.89-4.44-2.11-8.62-5.34-12.02-2.92-3.07-6.32-5.16-10.57-5.36-5.39-.26-10.8-.35-16.2-.31-3.07.02-3.63.61-3.1,3.75,1.14,6.79,2.23,13.61,3.95,20.26,7.32,28.28,18.5,55.01,33.23,80.23,2.1,3.6,4.58,7.02,7.14,10.31,5.44,6.99,13.11,8.06,21.21,7.26,1.29-.13,2.79-1.61,3.56-2.86,5.88-9.54,12.1-18.92,17.26-28.84,10.16-19.57,18.71-39.86,24.58-61.18,1.07-3.9,1.83-7.89,2.65-11.86.27-1.31.35-2.69.33-4.03-.12-8.36-3.58-12.2-11.84-12.86-3.9-.31-7.83-.27-11.75-.24-3.63.04-3.81.26-4.44,3.81-2.82,15.86-6.65,31.46-12.25,46.56-3.75,10.12-8.12,20.01-12.26,29.99-.56,1.34-1.35,2.58-2.57,4.89Z"/>
      <path class="cls-1" d="m1062.47,418.42c-.04,6.29,1.01,12.36,3.35,18.21,6.48,16.22,21.7,25.47,39.14,24.32,21.29-1.4,34.37-15.54,37.69-35.43,1.59-9.52.97-18.87-2.7-27.87-6.85-16.82-22.79-25.95-40.86-24.04-19.31,2.05-34.01,15.6-36.32,38.73-.2,2.01-.21,4.05-.31,6.07Zm59.72-.28c.12,5.01-.52,10.04-2.69,14.83-3.01,6.62-8.25,9.89-15.37,9.92-7.17.03-13.24-2.3-16.85-9.11-2.13-4.02-3.04-8.36-3.51-12.8-.67-6.39-.21-12.69,2.3-18.69,1.72-4.1,4.29-7.46,8.54-9.3,9.66-4.18,20.55-.02,24.78,9.56,2.17,4.91,2.84,10.1,2.8,15.59Z"/>
      <path class="cls-1" d="m1156.53,417.6c-.02,6.98.96,13.07,3.29,18.93,6.39,16.09,21.38,25.44,38.67,24.46,22.84-1.29,35.19-16.67,38.26-35.74,1.54-9.53.88-18.87-2.86-27.85-6.94-16.65-22.68-25.65-40.62-23.78-19.23,2-33.87,15.31-36.38,38.22-.23,2.15-.27,4.31-.35,5.77Zm59.72.47c.09,4.9-.5,9.67-2.43,14.25-2.95,7.02-8.27,10.55-15.75,10.57-7.54.02-13.94-2.57-17.07-9.97-1.55-3.67-2.54-7.7-3.09-11.66-.9-6.48-.37-12.95,2.24-19.08,1.81-4.24,4.54-7.65,8.97-9.41,9.88-3.92,20.42.48,24.52,10.24,2.02,4.81,2.64,9.88,2.61,15.05Z"/>
      <path class="cls-1" d="m1345.97,461.48c4.99-1.07,10.14-1.7,14.95-3.32,8.84-2.98,12.58-9.22,11.84-18.45-.22-2.81-.64-3.01-3.16-1.51-9.52,5.68-19.85,6.89-30.49,4.77-7.28-1.45-12.82-5.63-15.5-12.88-1.29-3.49-.91-4.07,2.75-4.15,6.49-.14,12.98-.09,19.46-.29,6.51-.2,12.94-1.07,19.08-3.37,5.73-2.14,9.73-6.03,10.55-12.25,1.57-11.9-2.09-21.96-11.66-29.42-14.65-11.43-37.92-8.91-50.94,5.16-12.1,13.07-16.48,40.84-3.57,58.09,9.17,12.25,21.51,17.56,36.69,17.63Zm-11.28-49.61c0-.09-.01-.18-.02-.26-3.24,0-6.48,0-9.71,0-1.4,0-2.31-.45-2.31-2.07-.03-5.74,2.16-13.18,10.01-17.25,6.07-3.14,15.65-2.34,20.32,1.76,3.51,3.08,4.38,7.12,3.36,11.43-.89,3.76-4.39,4.36-7.57,5.12-.26.06-.53.1-.8.12-4.43.39-8.85.77-13.28,1.16Z"/>
      <path class="cls-1" d="m754.73,399.71c.79-.46,1.27-.67,1.67-.98,9.97-7.85,21.36-9.26,33.38-7,6.7,1.26,10.23,6.27,10.12,13.23-.04,2.63-.32,2.99-3.07,3.08-3.38.11-6.76,0-10.14.11-7.07.22-13.97,1.33-20.58,3.97-9.26,3.7-14.85,10.27-15.37,20.4-.52,10.11,3.91,17.73,12.63,22.81,4.49,2.62,9.39,4.15,14.55,4.72,7.02.77,14.03.96,20.91-1.03,12.91-3.73,20.86-14.08,21.04-27.51.1-7.57.29-15.15-.09-22.7-.23-4.67-.92-9.46-2.31-13.92-3.47-11.15-11.19-17.87-22.73-20.08-6.98-1.34-13.97-1.34-20.94.03-1.84.36-3.67.93-5.43,1.59-10.65,4.03-15.01,11.28-13.66,23.27Zm36.92,22.24c.02.16.05.33.07.49,1.89,0,3.78.03,5.67,0,1.89-.04,2.67.88,2.63,2.71-.07,2.83.12,5.68-.17,8.49-.54,5.25-3.62,8.75-8.73,9.87-4.14.9-8.33.8-12.39-.56-4.7-1.57-7.18-4.99-7.18-9.66,0-4.85,2.18-7.95,7.39-9.27,4.14-1.05,8.47-1.4,12.71-2.06Z"/>
      <path class="cls-1" d="m1510.36,397.88c2.18-9.45-1.11-16.77-9.41-20.97-5.7-2.89-11.84-3.66-18.12-3.45-7.85.26-15.26,2.14-21.78,6.69-7.81,5.46-12.18,12.87-12.19,22.56,0,7.92,3.61,13.65,10.65,17.27,5.63,2.9,11.79,3.74,17.91,4.84,3.31.6,6.61,1.36,9.83,2.35,3.19.98,5.41,3,5.41,6.71,0,3.64-1.65,6.27-4.94,7.66-1.84.78-3.85,1.36-5.83,1.55-9.8.96-19.11-.61-27.69-5.7-2.52-1.49-2.78-1.29-2.87,1.76-.04,1.35.05,2.71-.02,4.05-.24,4.91,2,8.58,5.77,11.43,5.47,4.14,11.81,5.91,18.54,6.27,6.93.36,13.78-.28,20.34-2.77,14.41-5.49,18.74-18.24,16.28-31.1-1.11-5.79-4.91-9.79-9.97-12.65-5.26-2.97-11.04-4.28-16.9-5.39-3.58-.68-7.15-1.42-10.66-2.36-2.69-.72-5.09-2.03-5.4-5.29-.31-3.27.97-5.95,3.7-7.59,1.8-1.08,3.94-1.84,6.02-2.17,10.79-1.71,20.98-.15,30.25,5.98.3.2.72.22,1.09.33Z"/>
      <path class="cls-1" d="m1050.2,434.26c-7.95,6.95-16.6,8.2-25.73,7.41-8.97-.78-14.93-5.75-18.3-13.9-2.1-5.09-2.81-10.46-1.77-15.89,2.05-10.75,11.47-18.46,22.44-18.68,8.46-.17,16.32,1.49,22.89,7.44,3.55-14.78-3.98-24.05-16.86-25.55-35.95-4.19-55.7,26.12-48.77,54.33,4.33,17.62,21.33,30.78,39.49,31.15,5.45.11,10.82-.21,15.87-2.48,5.73-2.58,10.04-6.48,10.7-13.13.31-3.2.05-6.45.05-10.7Z"/>
      <path class="cls-1" d="m1255.22,393.35c0,12.96-.07,25.92.05,38.88.03,3.49.28,7.05,1.08,10.43,2.29,9.78,9.04,15.59,19.85,16.77,4.08.44,8.42.22,12.4-.71,5.32-1.24,8.65-8.83,6.55-13.84-.31-.74-1.61-1.37-2.52-1.5-1.99-.28-4.04-.14-6.06-.3-7.91-.61-10.82-3.66-10.84-11.6-.04-22.68,0-45.37-.05-68.05,0-2.27-.15-4.61-.68-6.81-1.35-5.58-5.17-8.74-10.89-9.25-1.88-.17-3.78,0-5.67-.13-2.37-.18-3.1,1.16-3.19,3.18-.05,1.08-.03,2.16-.03,3.24,0,13.23,0,26.46,0,39.69Z"/>
      <path class="cls-1" d="m909.76,431.25c0-6.76-.1-13.52.05-20.27.06-2.95.32-5.97,1.05-8.81,1.34-5.19,4.87-8.23,10.22-9.13,4.37-.73,8.59-.07,12.81,1.05,2.73.73,3.02.47,3.28-2.26.95-9.98-4.02-16.24-14.01-16.96-3.98-.29-8.16-.1-12.04.8-10.3,2.39-17.19,8.89-20.07,19.1-1.12,3.98-1.72,8.23-1.79,12.37-.23,12.56-.11,25.13-.07,37.7.03,9.2,4.71,13.88,13.98,14.12q6.56.17,6.57-6.23c0-7.16,0-14.32,0-21.49h.02Z"/>
      <path class="cls-1" d="m1413.33,431.57c0-7.84-.34-15.69.08-23.51.64-11.88,6.56-16.52,18.48-15.05,2,.25,3.99.71,5.93,1.28,1.65.48,2.54.32,2.72-1.64.91-10.2-2.73-16.73-14.33-17.89-5.59-.56-11.08.04-16.27,2.34-11.1,4.92-16.42,14.07-16.9,25.63-.61,14.84-.31,29.73-.16,44.6.06,6.33,4.3,10.44,11,11.48,8.61,1.34,9.25.8,9.25-7.77,0-6.49,0-12.98,0-19.47.07,0,.14,0,.21,0Z"/>
      <path class="cls-1" d="m839.81,408.64c0,8.38-.16,16.76.07,25.13.1,3.74.59,7.58,1.63,11.17,2.12,7.31,7.17,12.08,14.59,13.77,3.76.85,7.77,1.06,11.64.88,5.61-.27,8.49-3.41,8.95-9.1.64-7.89.19-7.02-6.23-7.39-7.36-.42-10.12-3.3-10.19-10.76-.12-12.43-.02-24.86-.07-37.3,0-2.29-.14-4.6-.5-6.86-.99-6.26-5.07-10.09-11.39-10.77-1.74-.19-3.51-.15-5.26-.1-2.92.09-3.18.3-3.22,3.36-.08,5-.03,10-.03,15,0,4.32,0,8.65,0,12.97h.01Z"/>
      <path class="cls-1" d="m850.04,368.72c6.55-.1,12.1-5.9,11.87-12.39-.23-6.41-5.79-11.58-12.31-11.44-6.52.14-11.66,5.52-11.54,12.09.11,6.47,5.59,11.84,11.99,11.74Z"/>
      <path class="cls-1" d="m1649.38,123.58c1.04-.46,2.01-.85,2.96-1.3,3.95-1.9,5.93-5.6,5.31-9.93-.61-4.29-3.09-7.32-7.56-7.71-6.16-.55-12.37-.47-18.57-.46-.71,0-1.72,1.11-2.06,1.92-.39.94-.24,2.12-.24,3.19,0,8.5-.02,16.99.04,25.49.01,1.55-.24,3.34,1.86,4.01,2.9.92,4.63-.27,4.71-3.37.07-2.83-.05-5.67.06-8.49.09-2.36.68-2.82,2.97-2.68,2.27.14,4.19.96,5.52,2.9,1.99,2.89,4.2,5.65,5.89,8.7,1.69,3.06,4.19,3.49,7.17,3.16,2.03-.23,2.36-.77,1.22-2.59-2.56-4.1-4.71-8.52-8.63-11.62-.28-.22-.38-.67-.66-1.19Zm-7.4-14.32c1.74.15,3.52.12,5.22.49,2.54.56,3.69,2.2,3.63,4.63-.07,2.45-1.27,4.01-3.9,4.35-2.66.34-5.38.3-8.07.42-2.27.1-2.95-1.06-3.04-3.22-.25-6.58-.33-6.58,6.16-6.67Z"/>
    </g>
  </g>
</svg>